<svg width="24" height="24" viewBox="0 0 24 24" fill="none" xmlns="http://www.w3.org/2000/svg">
<path d="M23.586 19.724H0.414C0.3042 19.724 0.198898 19.6804 0.121258 19.6027C0.0436177 19.5251 0 19.4198 0 19.31L0 4.414C0 4.3042 0.0436177 4.19889 0.121258 4.12125C0.198898 4.04361 0.3042 4 0.414 4H23.586C23.6404 4 23.6942 4.0107 23.7444 4.03151C23.7947 4.05231 23.8403 4.08281 23.8787 4.12125C23.9172 4.1597 23.9477 4.20534 23.9685 4.25557C23.9893 4.3058 24 4.35963 24 4.414V19.314C24 19.3684 23.9893 19.4222 23.9685 19.4724C23.9477 19.5227 23.9172 19.5683 23.8787 19.6067C23.8403 19.6452 23.7947 19.6757 23.7444 19.6965C23.6942 19.7173 23.6404 19.728 23.586 19.728V19.724Z" fill="#F2F2F2"/>
<path d="M24 5.20997H0V4.40997C0 4.30017 0.0436177 4.19487 0.121258 4.11723C0.198898 4.03959 0.3042 3.99597 0.414 3.99597H23.586C23.6407 3.99597 23.6949 4.00681 23.7454 4.02786C23.7959 4.04892 23.8417 4.07977 23.8802 4.11864C23.9187 4.15751 23.9491 4.20362 23.9696 4.25431C23.9902 4.305 24.0005 4.35927 24 4.41397V5.20997ZM0 8.83797H24V10.048H0V8.83797ZM0 6.41897H24V7.62397H0V6.41897ZM24 12.467H0.414C0.359633 12.467 0.305798 12.4563 0.255569 12.4355C0.20534 12.4146 0.159701 12.3842 0.121258 12.3457C0.0828143 12.3073 0.0523193 12.2616 0.0315139 12.2114C0.0107084 12.1612 0 12.1073 0 12.053L0 11.253H24V12.467ZM0 16.096H24V17.306H0V16.096ZM23.586 19.724H0.414C0.3042 19.724 0.198898 19.6803 0.121258 19.6027C0.0436177 19.5251 0 19.4198 0 19.31L0 18.51H24V19.31C24 19.3643 23.9893 19.4182 23.9685 19.4684C23.9477 19.5186 23.9172 19.5643 23.8787 19.6027C23.8403 19.6412 23.7947 19.6716 23.7444 19.6925C23.6942 19.7133 23.6404 19.724 23.586 19.724ZM0 13.677H24V14.887H0V13.677Z" fill="#FF4B55"/>
<path d="M10.759 4H0.414C0.3042 4 0.198898 4.04361 0.121258 4.12125C0.0436177 4.19889 0 4.3042 0 4.414L0 12.053C0 12.1074 0.0107084 12.1612 0.0315139 12.2114C0.0523193 12.2617 0.0828143 12.3073 0.121258 12.3457C0.159701 12.3842 0.20534 12.4147 0.255569 12.4355C0.305798 12.4563 0.359633 12.467 0.414 12.467H10.759C10.8134 12.467 10.8672 12.4563 10.9174 12.4355C10.9677 12.4147 11.0133 12.3842 11.0517 12.3457C11.0902 12.3073 11.1207 12.2617 11.1415 12.2114C11.1623 12.1612 11.173 12.1074 11.173 12.053V4.414C11.173 4.3042 11.1294 4.19889 11.0517 4.12125C10.9741 4.04361 10.8688 4 10.759 4Z" fill="#41479B"/>
<path d="M1.16231 4.95392L1.25431 5.22892H1.54431C1.55241 5.22906 1.56027 5.23171 1.56679 5.23652C1.57331 5.24133 1.57818 5.24804 1.58071 5.25574C1.58323 5.26343 1.5833 5.27173 1.5809 5.27946C1.5785 5.2872 1.57375 5.29401 1.56731 5.29892L1.33431 5.47092L1.42131 5.74692C1.42398 5.75477 1.42408 5.76328 1.42159 5.77119C1.4191 5.77911 1.41415 5.78602 1.40745 5.79093C1.40076 5.79584 1.39268 5.79848 1.38438 5.79848C1.37608 5.79848 1.368 5.79583 1.36131 5.79092L1.12531 5.62292L0.889312 5.79092C0.882689 5.79564 0.874753 5.79819 0.866616 5.79818C0.858479 5.79817 0.850547 5.79562 0.843933 5.79088C0.837319 5.78614 0.832353 5.77945 0.829731 5.77174C0.827109 5.76404 0.826962 5.75571 0.829311 5.74792L0.916312 5.47192L0.683311 5.29992C0.67687 5.295 0.67212 5.2882 0.669719 5.28046C0.667319 5.27273 0.667389 5.26443 0.669918 5.25674C0.672447 5.24904 0.67731 5.24232 0.683832 5.23752C0.690354 5.23271 0.698211 5.23006 0.706312 5.22992H0.996312L1.08831 4.95492C1.09079 4.94711 1.09567 4.94029 1.10224 4.93541C1.10882 4.93053 1.11676 4.92785 1.12495 4.92774C1.13314 4.92763 1.14115 4.9301 1.14786 4.9348C1.15456 4.9395 1.15962 4.94619 1.16231 4.95392ZM1.16231 6.39091L1.25431 6.66592H1.54431C1.55241 6.66605 1.56027 6.66871 1.56679 6.67352C1.57331 6.67832 1.57818 6.68504 1.58071 6.69274C1.58323 6.70044 1.5833 6.70873 1.5809 6.71647C1.5785 6.72421 1.57375 6.731 1.56731 6.73592L1.33431 6.90792L1.42131 7.18392C1.42366 7.19171 1.42351 7.20004 1.42089 7.20774C1.41827 7.21544 1.4133 7.22214 1.40669 7.22688C1.40008 7.23162 1.39214 7.23417 1.38401 7.23418C1.37587 7.23418 1.36793 7.23165 1.36131 7.22692L1.12531 7.05892L0.889312 7.22692C0.882689 7.23165 0.874753 7.23418 0.866616 7.23418C0.858479 7.23417 0.850547 7.23162 0.843933 7.22688C0.837319 7.22214 0.832353 7.21544 0.829731 7.20774C0.827109 7.20004 0.826962 7.19171 0.829311 7.18392L0.916312 6.90792L0.683311 6.73592C0.67687 6.731 0.67212 6.72421 0.669719 6.71647C0.667319 6.70873 0.667389 6.70044 0.669918 6.69274C0.672447 6.68504 0.67731 6.67832 0.683832 6.67352C0.690354 6.66871 0.698211 6.66605 0.706312 6.66592H0.996312L1.08831 6.39091C1.09033 6.38293 1.09481 6.3758 1.10113 6.37052C1.10746 6.36525 1.11528 6.3621 1.1235 6.36155C1.13171 6.36099 1.13989 6.36305 1.14686 6.36743C1.15383 6.37181 1.15924 6.37828 1.16231 6.38592V6.39091ZM1.16231 7.82792L1.25431 8.10292H1.54431C1.55241 8.10306 1.56027 8.10571 1.56679 8.11052C1.57331 8.11533 1.57818 8.12204 1.58071 8.12974C1.58323 8.13743 1.5833 8.14573 1.5809 8.15347C1.5785 8.1612 1.57375 8.16801 1.56731 8.17292L1.33431 8.34492L1.42131 8.62092C1.42398 8.62877 1.42408 8.63728 1.42159 8.6452C1.4191 8.65311 1.41415 8.66002 1.40745 8.66493C1.40076 8.66984 1.39268 8.67248 1.38438 8.67248C1.37608 8.67248 1.368 8.66983 1.36131 8.66492L1.12531 8.49692L0.889312 8.66492C0.882622 8.66983 0.874541 8.67248 0.866243 8.67248C0.857945 8.67248 0.849862 8.66984 0.84317 8.66493C0.836478 8.66002 0.831526 8.65311 0.829034 8.6452C0.826541 8.63728 0.826638 8.62877 0.829311 8.62092L0.916312 8.34492L0.683311 8.17292C0.67687 8.16801 0.67212 8.1612 0.669719 8.15347C0.667319 8.14573 0.667389 8.13743 0.669918 8.12974C0.672447 8.12204 0.67731 8.11533 0.683832 8.11052C0.690354 8.10571 0.698211 8.10306 0.706312 8.10292H0.996312L1.08831 7.82792C1.09033 7.81994 1.09481 7.8128 1.10113 7.80753C1.10746 7.80225 1.11528 7.79911 1.1235 7.79855C1.13171 7.798 1.13989 7.80006 1.14686 7.80444C1.15383 7.80881 1.15924 7.81528 1.16231 7.82292V7.82792ZM1.16231 9.26492L1.25431 9.53992H1.54431C1.55241 9.54005 1.56027 9.54271 1.56679 9.54752C1.57331 9.55232 1.57818 9.55904 1.58071 9.56674C1.58323 9.57444 1.5833 9.58273 1.5809 9.59047C1.5785 9.59821 1.57375 9.605 1.56731 9.60992L1.33431 9.78192L1.42131 10.0579C1.42398 10.0658 1.42408 10.0743 1.42159 10.0822C1.4191 10.0901 1.41415 10.097 1.40745 10.1019C1.40076 10.1068 1.39268 10.1095 1.38438 10.1095C1.37608 10.1095 1.368 10.1068 1.36131 10.1019L1.12531 9.93392L0.889312 10.1019C0.882622 10.1068 0.874541 10.1095 0.866243 10.1095C0.857945 10.1095 0.849862 10.1068 0.84317 10.1019C0.836478 10.097 0.831526 10.0901 0.829034 10.0822C0.826541 10.0743 0.826638 10.0658 0.829311 10.0579L0.916312 9.78192L0.683311 9.60992C0.67687 9.605 0.67212 9.59821 0.669719 9.59047C0.667319 9.58273 0.667389 9.57444 0.669918 9.56674C0.672447 9.55904 0.67731 9.55232 0.683832 9.54752C0.690354 9.54271 0.698211 9.54005 0.706312 9.53992H0.996312L1.08831 9.26492C1.09033 9.25693 1.09481 9.2498 1.10113 9.24452C1.10746 9.23925 1.11528 9.2361 1.1235 9.23555C1.13171 9.23499 1.13989 9.23706 1.14686 9.24143C1.15383 9.24581 1.15924 9.25228 1.16231 9.25992V9.26492ZM1.16231 10.7019L1.25431 10.9769H1.54431C1.55241 10.9771 1.56027 10.9797 1.56679 10.9845C1.57331 10.9893 1.57818 10.996 1.58071 11.0037C1.58323 11.0114 1.5833 11.0197 1.5809 11.0275C1.5785 11.0352 1.57375 11.042 1.56731 11.0469L1.33431 11.2189L1.42131 11.4949C1.42398 11.5028 1.42408 11.5113 1.42159 11.5192C1.4191 11.5271 1.41415 11.534 1.40745 11.5389C1.40076 11.5438 1.39268 11.5465 1.38438 11.5465C1.37608 11.5465 1.368 11.5438 1.36131 11.5389L1.12531 11.3709L0.889312 11.5389C0.882622 11.5438 0.874541 11.5465 0.866243 11.5465C0.857945 11.5465 0.849862 11.5438 0.84317 11.5389C0.836478 11.534 0.831526 11.5271 0.829034 11.5192C0.826541 11.5113 0.826638 11.5028 0.829311 11.4949L0.916312 11.2189L0.683311 11.0469C0.67687 11.042 0.67212 11.0352 0.669719 11.0275C0.667319 11.0197 0.667389 11.0114 0.669918 11.0037C0.672447 10.996 0.67731 10.9893 0.683832 10.9845C0.690354 10.9797 0.698211 10.9771 0.706312 10.9769H0.996312L1.08831 10.7019C1.09033 10.6939 1.09481 10.6868 1.10113 10.6815C1.10746 10.6762 1.11528 10.6731 1.1235 10.6726C1.13171 10.672 1.13989 10.6741 1.14686 10.6784C1.15383 10.6828 1.15924 10.6893 1.16231 10.6969V10.7019ZM2.27731 5.65892L2.36931 5.93392H2.65931C2.66741 5.93406 2.67527 5.93671 2.68179 5.94152C2.68831 5.94633 2.69318 5.95304 2.69571 5.96074C2.69823 5.96844 2.6983 5.97673 2.6959 5.98447C2.6935 5.9922 2.68875 5.99901 2.68231 6.00392L2.44931 6.17592L2.53631 6.45192C2.53866 6.45971 2.53851 6.46804 2.53589 6.47575C2.53327 6.48345 2.5283 6.49014 2.52169 6.49488C2.51508 6.49962 2.50715 6.50217 2.49901 6.50217C2.49087 6.50218 2.48294 6.49965 2.47631 6.49492L2.24031 6.32692L2.00431 6.49492C1.99769 6.49965 1.98975 6.50218 1.98162 6.50217C1.97348 6.50217 1.96555 6.49962 1.95893 6.49488C1.95232 6.49014 1.94735 6.48345 1.94473 6.47575C1.94211 6.46804 1.94196 6.45971 1.94431 6.45192L2.03131 6.17592L1.79831 6.00392C1.79187 5.99901 1.78712 5.9922 1.78472 5.98447C1.78232 5.97673 1.78239 5.96844 1.78492 5.96074C1.78745 5.95304 1.79231 5.94633 1.79883 5.94152C1.80535 5.93671 1.81321 5.93406 1.82131 5.93392H2.11131L2.20331 5.65892C2.2059 5.65115 2.21087 5.6444 2.21751 5.63961C2.22415 5.63482 2.23213 5.63225 2.24031 5.63225C2.2485 5.63225 2.25648 5.63482 2.26312 5.63961C2.26976 5.6444 2.27472 5.65115 2.27731 5.65892ZM2.27731 7.09592L2.36931 7.37092H2.65931C2.66741 7.37105 2.67527 7.37371 2.68179 7.37852C2.68831 7.38332 2.69318 7.39004 2.69571 7.39774C2.69823 7.40543 2.6983 7.41373 2.6959 7.42147C2.6935 7.42921 2.68875 7.436 2.68231 7.44092L2.44931 7.61292L2.53631 7.88892C2.53898 7.89677 2.53908 7.90528 2.53659 7.91319C2.5341 7.92111 2.52914 7.92802 2.52245 7.93293C2.51576 7.93784 2.50768 7.94049 2.49938 7.94048C2.49108 7.94048 2.483 7.93783 2.47631 7.93291L2.24031 7.76492L2.00431 7.93291C1.99762 7.93783 1.98954 7.94048 1.98124 7.94048C1.97294 7.94049 1.96486 7.93784 1.95817 7.93293C1.95148 7.92802 1.94653 7.92111 1.94403 7.91319C1.94154 7.90528 1.94164 7.89677 1.94431 7.88892L2.03131 7.61292L1.79831 7.44092C1.79187 7.436 1.78712 7.42921 1.78472 7.42147C1.78232 7.41373 1.78239 7.40543 1.78492 7.39774C1.78745 7.39004 1.79231 7.38332 1.79883 7.37852C1.80535 7.37371 1.81321 7.37105 1.82131 7.37092H2.11131L2.20331 7.09592C2.2059 7.08815 2.21087 7.08139 2.21751 7.07661C2.22415 7.07182 2.23213 7.06924 2.24031 7.06924C2.2485 7.06924 2.25648 7.07182 2.26312 7.07661C2.26976 7.08139 2.27472 7.08815 2.27731 7.09592ZM2.27731 8.53292L2.36931 8.80791H2.65931C2.66741 8.80805 2.67527 8.81071 2.68179 8.81551C2.68831 8.82032 2.69318 8.82704 2.69571 8.83474C2.69823 8.84244 2.6983 8.85073 2.6959 8.85847C2.6935 8.86621 2.68875 8.87301 2.68231 8.87792L2.44931 9.04992L2.53631 9.32592C2.53866 9.33371 2.53851 9.34204 2.53589 9.34975C2.53327 9.35745 2.5283 9.36413 2.52169 9.36887C2.51508 9.37361 2.50715 9.37617 2.49901 9.37617C2.49087 9.37618 2.48294 9.37365 2.47631 9.36892L2.24031 9.20092L2.00431 9.36892C1.99769 9.37365 1.98975 9.37618 1.98162 9.37617C1.97348 9.37617 1.96555 9.37361 1.95893 9.36887C1.95232 9.36413 1.94735 9.35745 1.94473 9.34975C1.94211 9.34204 1.94196 9.33371 1.94431 9.32592L2.03131 9.04992L1.79831 8.87792C1.79187 8.87301 1.78712 8.86621 1.78472 8.85847C1.78232 8.85073 1.78239 8.84244 1.78492 8.83474C1.78745 8.82704 1.79231 8.82032 1.79883 8.81551C1.80535 8.81071 1.81321 8.80805 1.82131 8.80791H2.11131L2.20331 8.53292C2.2059 8.52515 2.21087 8.5184 2.21751 8.51361C2.22415 8.50882 2.23213 8.50625 2.24031 8.50625C2.2485 8.50625 2.25648 8.50882 2.26312 8.51361C2.26976 8.5184 2.27472 8.52515 2.27731 8.53292ZM2.27731 9.96992L2.36931 10.2449H2.65931C2.66741 10.2451 2.67527 10.2477 2.68179 10.2525C2.68831 10.2573 2.69318 10.264 2.69571 10.2717C2.69823 10.2794 2.6983 10.2877 2.6959 10.2955C2.6935 10.3032 2.68875 10.31 2.68231 10.3149L2.44931 10.4869L2.53631 10.7629C2.53898 10.7708 2.53908 10.7793 2.53659 10.7872C2.5341 10.7951 2.52914 10.802 2.52245 10.8069C2.51576 10.8118 2.50768 10.8145 2.49938 10.8145C2.49108 10.8145 2.483 10.8118 2.47631 10.8069L2.24031 10.6389L2.00431 10.8069C1.99762 10.8118 1.98954 10.8145 1.98124 10.8145C1.97294 10.8145 1.96486 10.8118 1.95817 10.8069C1.95148 10.802 1.94653 10.7951 1.94403 10.7872C1.94154 10.7793 1.94164 10.7708 1.94431 10.7629L2.03131 10.4869L1.79831 10.3149C1.79187 10.31 1.78712 10.3032 1.78472 10.2955C1.78232 10.2877 1.78239 10.2794 1.78492 10.2717C1.78745 10.264 1.79231 10.2573 1.79883 10.2525C1.80535 10.2477 1.81321 10.2451 1.82131 10.2449H2.11131L2.20331 9.96992C2.2059 9.96215 2.21087 9.95539 2.21751 9.95061C2.22415 9.94582 2.23213 9.94324 2.24031 9.94324C2.2485 9.94324 2.25648 9.94582 2.26312 9.95061C2.26976 9.95539 2.27472 9.96215 2.27731 9.96992ZM3.39231 4.95392L3.48431 5.22892H3.77431C3.78241 5.22906 3.79027 5.23171 3.79679 5.23652C3.80331 5.24133 3.80818 5.24804 3.8107 5.25574C3.81323 5.26343 3.8133 5.27173 3.8109 5.27946C3.8085 5.2872 3.80375 5.29401 3.79731 5.29892L3.56431 5.47092L3.65131 5.74692C3.65398 5.75477 3.65408 5.76328 3.65159 5.77119C3.6491 5.77911 3.64414 5.78602 3.63745 5.79093C3.63076 5.79584 3.62268 5.79848 3.61438 5.79848C3.60608 5.79848 3.598 5.79583 3.59131 5.79092L3.35531 5.62292L3.11931 5.79092C3.11262 5.79583 3.10454 5.79848 3.09624 5.79848C3.08794 5.79848 3.07986 5.79584 3.07317 5.79093C3.06648 5.78602 3.06153 5.77911 3.05903 5.77119C3.05654 5.76328 3.05664 5.75477 3.05931 5.74692L3.14631 5.47092L2.91331 5.29892C2.90687 5.29401 2.90212 5.2872 2.89972 5.27946C2.89732 5.27173 2.89739 5.26343 2.89992 5.25574C2.90245 5.24804 2.90731 5.24133 2.91383 5.23652C2.92035 5.23171 2.92821 5.22906 2.93631 5.22892H3.22631L3.31531 4.95392C3.31679 4.94477 3.32148 4.93646 3.32853 4.93045C3.33559 4.92445 3.34455 4.92114 3.35381 4.92114C3.36308 4.92114 3.37204 4.92445 3.37909 4.93045C3.38615 4.93646 3.39083 4.94477 3.39231 4.95392ZM3.39231 6.39091L3.48431 6.66592H3.77431C3.78241 6.66605 3.79027 6.66871 3.79679 6.67352C3.80331 6.67832 3.80818 6.68504 3.8107 6.69274C3.81323 6.70044 3.8133 6.70873 3.8109 6.71647C3.8085 6.72421 3.80375 6.731 3.79731 6.73592L3.56431 6.90792L3.65131 7.18392C3.65366 7.19171 3.65351 7.20004 3.65089 7.20774C3.64827 7.21544 3.6433 7.22214 3.63669 7.22688C3.63008 7.23162 3.62214 7.23417 3.61401 7.23418C3.60587 7.23418 3.59793 7.23165 3.59131 7.22692L3.35531 7.05892L3.11931 7.22692C3.11269 7.23165 3.10475 7.23418 3.09662 7.23418C3.08848 7.23417 3.08055 7.23162 3.07393 7.22688C3.06732 7.22214 3.06235 7.21544 3.05973 7.20774C3.05711 7.20004 3.05696 7.19171 3.05931 7.18392L3.14631 6.90792L2.91331 6.73592C2.90687 6.731 2.90212 6.72421 2.89972 6.71647C2.89732 6.70873 2.89739 6.70044 2.89992 6.69274C2.90245 6.68504 2.90731 6.67832 2.91383 6.67352C2.92035 6.66871 2.92821 6.66605 2.93631 6.66592H3.22631L3.31831 6.39091C3.32033 6.38293 3.32481 6.3758 3.33113 6.37052C3.33745 6.36525 3.34528 6.3621 3.3535 6.36155C3.36171 6.36099 3.36989 6.36305 3.37686 6.36743C3.38383 6.37181 3.38924 6.37828 3.39231 6.38592V6.39091ZM3.39231 7.82792L3.48431 8.10292H3.77431C3.78241 8.10306 3.79027 8.10571 3.79679 8.11052C3.80331 8.11533 3.80818 8.12204 3.8107 8.12974C3.81323 8.13743 3.8133 8.14573 3.8109 8.15347C3.8085 8.1612 3.80375 8.16801 3.79731 8.17292L3.56431 8.34492L3.65131 8.62092C3.65398 8.62877 3.65408 8.63728 3.65159 8.6452C3.6491 8.65311 3.64414 8.66002 3.63745 8.66493C3.63076 8.66984 3.62268 8.67248 3.61438 8.67248C3.60608 8.67248 3.598 8.66983 3.59131 8.66492L3.35531 8.49692L3.11931 8.66492C3.11262 8.66983 3.10454 8.67248 3.09624 8.67248C3.08794 8.67248 3.07986 8.66984 3.07317 8.66493C3.06648 8.66002 3.06153 8.65311 3.05903 8.6452C3.05654 8.63728 3.05664 8.62877 3.05931 8.62092L3.14631 8.34492L2.91331 8.17292C2.90687 8.16801 2.90212 8.1612 2.89972 8.15347C2.89732 8.14573 2.89739 8.13743 2.89992 8.12974C2.90245 8.12204 2.90731 8.11533 2.91383 8.11052C2.92035 8.10571 2.92821 8.10306 2.93631 8.10292H3.22631L3.31831 7.82792C3.32033 7.81994 3.32481 7.8128 3.33113 7.80753C3.33745 7.80225 3.34528 7.79911 3.3535 7.79855C3.36171 7.798 3.36989 7.80006 3.37686 7.80444C3.38383 7.80881 3.38924 7.81528 3.39231 7.82292V7.82792ZM3.39231 9.26492L3.48431 9.53992H3.77431C3.78241 9.54005 3.79027 9.54271 3.79679 9.54752C3.80331 9.55232 3.80818 9.55904 3.8107 9.56674C3.81323 9.57444 3.8133 9.58273 3.8109 9.59047C3.8085 9.59821 3.80375 9.605 3.79731 9.60992L3.56431 9.78192L3.65131 10.0579C3.65398 10.0658 3.65408 10.0743 3.65159 10.0822C3.6491 10.0901 3.64414 10.097 3.63745 10.1019C3.63076 10.1068 3.62268 10.1095 3.61438 10.1095C3.60608 10.1095 3.598 10.1068 3.59131 10.1019L3.35531 9.93392L3.11931 10.1019C3.11262 10.1068 3.10454 10.1095 3.09624 10.1095C3.08794 10.1095 3.07986 10.1068 3.07317 10.1019C3.06648 10.097 3.06153 10.0901 3.05903 10.0822C3.05654 10.0743 3.05664 10.0658 3.05931 10.0579L3.14631 9.78192L2.91331 9.60992C2.90687 9.605 2.90212 9.59821 2.89972 9.59047C2.89732 9.58273 2.89739 9.57444 2.89992 9.56674C2.90245 9.55904 2.90731 9.55232 2.91383 9.54752C2.92035 9.54271 2.92821 9.54005 2.93631 9.53992H3.22631L3.31831 9.26492C3.32033 9.25693 3.32481 9.2498 3.33113 9.24452C3.33745 9.23925 3.34528 9.2361 3.3535 9.23555C3.36171 9.23499 3.36989 9.23706 3.37686 9.24143C3.38383 9.24581 3.38924 9.25228 3.39231 9.25992V9.26492ZM3.39231 10.7019L3.48431 10.9769H3.77431C3.78241 10.9771 3.79027 10.9797 3.79679 10.9845C3.80331 10.9893 3.80818 10.996 3.8107 11.0037C3.81323 11.0114 3.8133 11.0197 3.8109 11.0275C3.8085 11.0352 3.80375 11.042 3.79731 11.0469L3.56431 11.2189L3.65131 11.4949C3.65398 11.5028 3.65408 11.5113 3.65159 11.5192C3.6491 11.5271 3.64414 11.534 3.63745 11.5389C3.63076 11.5438 3.62268 11.5465 3.61438 11.5465C3.60608 11.5465 3.598 11.5438 3.59131 11.5389L3.35531 11.3709L3.11931 11.5389C3.11262 11.5438 3.10454 11.5465 3.09624 11.5465C3.08794 11.5465 3.07986 11.5438 3.07317 11.5389C3.06648 11.534 3.06153 11.5271 3.05903 11.5192C3.05654 11.5113 3.05664 11.5028 3.05931 11.4949L3.14631 11.2189L2.91331 11.0469C2.90687 11.042 2.90212 11.0352 2.89972 11.0275C2.89732 11.0197 2.89739 11.0114 2.89992 11.0037C2.90245 10.996 2.90731 10.9893 2.91383 10.9845C2.92035 10.9797 2.92821 10.9771 2.93631 10.9769H3.22631L3.31831 10.7019C3.32033 10.6939 3.32481 10.6868 3.33113 10.6815C3.33745 10.6762 3.34528 10.6731 3.3535 10.6726C3.36171 10.672 3.36989 10.6741 3.37686 10.6784C3.38383 10.6828 3.38924 10.6893 3.39231 10.6969V10.7019ZM4.50731 5.65892L4.59931 5.93392H4.88931C4.89741 5.93406 4.90527 5.93671 4.91179 5.94152C4.91831 5.94633 4.92318 5.95304 4.92571 5.96074C4.92824 5.96844 4.9283 5.97673 4.9259 5.98447C4.9235 5.9922 4.91875 5.99901 4.91231 6.00392L4.67931 6.17592L4.76631 6.45192C4.76866 6.45971 4.76851 6.46804 4.76589 6.47575C4.76327 6.48345 4.7583 6.49014 4.75169 6.49488C4.74508 6.49962 4.73714 6.50217 4.72901 6.50217C4.72087 6.50218 4.71293 6.49965 4.70631 6.49492L4.47031 6.32692L4.23431 6.49492C4.22769 6.49965 4.21975 6.50218 4.21162 6.50217C4.20348 6.50217 4.19555 6.49962 4.18893 6.49488C4.18232 6.49014 4.17735 6.48345 4.17473 6.47575C4.17211 6.46804 4.17196 6.45971 4.17431 6.45192L4.26131 6.17592L4.02831 6.00392C4.02187 5.99901 4.01712 5.9922 4.01472 5.98447C4.01232 5.97673 4.01239 5.96844 4.01492 5.96074C4.01745 5.95304 4.02231 5.94633 4.02883 5.94152C4.03535 5.93671 4.04321 5.93406 4.05131 5.93392H4.34131L4.43331 5.65892C4.43533 5.65094 4.43982 5.64379 4.44614 5.63852C4.45246 5.63324 4.46028 5.63011 4.4685 5.62955C4.47671 5.629 4.48489 5.63105 4.49186 5.63543C4.49883 5.63981 4.50424 5.64628 4.50731 5.65392V5.65892ZM4.50731 7.09592L4.59931 7.37092H4.88931C4.89741 7.37105 4.90527 7.37371 4.91179 7.37852C4.91831 7.38332 4.92318 7.39004 4.92571 7.39774C4.92824 7.40543 4.9283 7.41373 4.9259 7.42147C4.9235 7.42921 4.91875 7.436 4.91231 7.44092L4.67931 7.61292L4.76631 7.88892C4.76898 7.89677 4.76908 7.90528 4.76659 7.91319C4.7641 7.92111 4.75914 7.92802 4.75245 7.93293C4.74576 7.93784 4.73768 7.94049 4.72938 7.94048C4.72108 7.94048 4.713 7.93783 4.70631 7.93291L4.47031 7.76492L4.23431 7.93291C4.22762 7.93783 4.21954 7.94048 4.21124 7.94048C4.20294 7.94049 4.19486 7.93784 4.18817 7.93293C4.18148 7.92802 4.17653 7.92111 4.17403 7.91319C4.17154 7.90528 4.17164 7.89677 4.17431 7.88892L4.26131 7.61292L4.02831 7.44092C4.02187 7.436 4.01712 7.42921 4.01472 7.42147C4.01232 7.41373 4.01239 7.40543 4.01492 7.39774C4.01745 7.39004 4.02231 7.38332 4.02883 7.37852C4.03535 7.37371 4.04321 7.37105 4.05131 7.37092H4.34131L4.43331 7.09592C4.43533 7.08793 4.43982 7.0808 4.44614 7.07552C4.45246 7.07025 4.46028 7.06711 4.4685 7.06655C4.47671 7.066 4.48489 7.06806 4.49186 7.07243C4.49883 7.07681 4.50424 7.08328 4.50731 7.09092V7.09592ZM4.50731 8.53292L4.59931 8.80791H4.88931C4.89741 8.80805 4.90527 8.81071 4.91179 8.81551C4.91831 8.82032 4.92318 8.82704 4.92571 8.83474C4.92824 8.84244 4.9283 8.85073 4.9259 8.85847C4.9235 8.86621 4.91875 8.87301 4.91231 8.87792L4.67931 9.04992L4.76631 9.32592C4.76866 9.33371 4.76851 9.34204 4.76589 9.34975C4.76327 9.35745 4.7583 9.36413 4.75169 9.36887C4.74508 9.37361 4.73714 9.37617 4.72901 9.37617C4.72087 9.37618 4.71293 9.37365 4.70631 9.36892L4.47031 9.20092L4.23431 9.36892C4.22769 9.37365 4.21975 9.37618 4.21162 9.37617C4.20348 9.37617 4.19555 9.37361 4.18893 9.36887C4.18232 9.36413 4.17735 9.35745 4.17473 9.34975C4.17211 9.34204 4.17196 9.33371 4.17431 9.32592L4.26131 9.04992L4.02831 8.87792C4.02187 8.87301 4.01712 8.86621 4.01472 8.85847C4.01232 8.85073 4.01239 8.84244 4.01492 8.83474C4.01745 8.82704 4.02231 8.82032 4.02883 8.81551C4.03535 8.81071 4.04321 8.80805 4.05131 8.80791H4.34131L4.43331 8.53292C4.43533 8.52494 4.43982 8.51779 4.44614 8.51252C4.45246 8.50724 4.46028 8.50411 4.4685 8.50356C4.47671 8.503 4.48489 8.50505 4.49186 8.50943C4.49883 8.51381 4.50424 8.52028 4.50731 8.52792V8.53292ZM4.50731 9.96992L4.59931 10.2449H4.88931C4.89741 10.2451 4.90527 10.2477 4.91179 10.2525C4.91831 10.2573 4.92318 10.264 4.92571 10.2717C4.92824 10.2794 4.9283 10.2877 4.9259 10.2955C4.9235 10.3032 4.91875 10.31 4.91231 10.3149L4.67931 10.4869L4.76631 10.7629C4.76898 10.7708 4.76908 10.7793 4.76659 10.7872C4.7641 10.7951 4.75914 10.802 4.75245 10.8069C4.74576 10.8118 4.73768 10.8145 4.72938 10.8145C4.72108 10.8145 4.713 10.8118 4.70631 10.8069L4.47031 10.6389L4.23431 10.8069C4.22762 10.8118 4.21954 10.8145 4.21124 10.8145C4.20294 10.8145 4.19486 10.8118 4.18817 10.8069C4.18148 10.802 4.17653 10.7951 4.17403 10.7872C4.17154 10.7793 4.17164 10.7708 4.17431 10.7629L4.26131 10.4869L4.02831 10.3149C4.02187 10.31 4.01712 10.3032 4.01472 10.2955C4.01232 10.2877 4.01239 10.2794 4.01492 10.2717C4.01745 10.264 4.02231 10.2573 4.02883 10.2525C4.03535 10.2477 4.04321 10.2451 4.05131 10.2449H4.34131L4.43331 9.96992C4.43533 9.96194 4.43982 9.9548 4.44614 9.94952C4.45246 9.94425 4.46028 9.94111 4.4685 9.94055C4.47671 9.94 4.48489 9.94206 4.49186 9.94643C4.49883 9.95081 4.50424 9.95728 4.50731 9.96492V9.96992ZM5.62331 4.95392L5.71531 5.22892H6.00531C6.01341 5.22906 6.02127 5.23171 6.02779 5.23652C6.03431 5.24133 6.03918 5.24804 6.04171 5.25574C6.04423 5.26343 6.0443 5.27173 6.0419 5.27946C6.0395 5.2872 6.03475 5.29401 6.02831 5.29892L5.79531 5.47092L5.88231 5.74692C5.88498 5.75477 5.88508 5.76328 5.88259 5.77119C5.8801 5.77911 5.87515 5.78602 5.86845 5.79093C5.86176 5.79584 5.85368 5.79848 5.84538 5.79848C5.83708 5.79848 5.829 5.79583 5.82231 5.79092L5.58631 5.62292L5.35031 5.79092C5.34362 5.79583 5.33554 5.79848 5.32724 5.79848C5.31894 5.79848 5.31086 5.79584 5.30417 5.79093C5.29748 5.78602 5.29253 5.77911 5.29003 5.77119C5.28754 5.76328 5.28764 5.75477 5.29031 5.74692L5.37731 5.47092L5.14431 5.29892C5.13787 5.29401 5.13312 5.2872 5.13072 5.27946C5.12832 5.27173 5.12839 5.26343 5.13092 5.25574C5.13345 5.24804 5.13831 5.24133 5.14483 5.23652C5.15135 5.23171 5.15921 5.22906 5.16731 5.22892H5.45731L5.54931 4.95392C5.5519 4.94615 5.55687 4.9394 5.56351 4.93461C5.57015 4.92982 5.57812 4.92725 5.58631 4.92725C5.5945 4.92725 5.60248 4.92982 5.60912 4.93461C5.61576 4.9394 5.62072 4.94615 5.62331 4.95392ZM5.62331 6.39091L5.71531 6.66592H6.00531C6.01341 6.66605 6.02127 6.66871 6.02779 6.67352C6.03431 6.67832 6.03918 6.68504 6.04171 6.69274C6.04423 6.70044 6.0443 6.70873 6.0419 6.71647C6.0395 6.72421 6.03475 6.731 6.02831 6.73592L5.79531 6.90792L5.88231 7.18392C5.88466 7.19171 5.88451 7.20004 5.88189 7.20774C5.87927 7.21544 5.8743 7.22214 5.86769 7.22688C5.86108 7.23162 5.85314 7.23417 5.84501 7.23418C5.83687 7.23418 5.82893 7.23165 5.82231 7.22692L5.58631 7.05892L5.35031 7.22692C5.34369 7.23165 5.33575 7.23418 5.32762 7.23418C5.31948 7.23417 5.31155 7.23162 5.30493 7.22688C5.29832 7.22214 5.29335 7.21544 5.29073 7.20774C5.28811 7.20004 5.28796 7.19171 5.29031 7.18392L5.37731 6.90792L5.14431 6.73592C5.13787 6.731 5.13312 6.72421 5.13072 6.71647C5.12832 6.70873 5.12839 6.70044 5.13092 6.69274C5.13345 6.68504 5.13831 6.67832 5.14483 6.67352C5.15135 6.66871 5.15921 6.66605 5.16731 6.66592H5.45731L5.54931 6.39091C5.55133 6.38293 5.55582 6.3758 5.56214 6.37052C5.56846 6.36525 5.57628 6.3621 5.5845 6.36155C5.59271 6.36099 5.60089 6.36305 5.60786 6.36743C5.61483 6.37181 5.62024 6.37828 5.62331 6.38592V6.39091ZM5.62331 7.82792L5.71531 8.10292H6.00531C6.01341 8.10306 6.02127 8.10571 6.02779 8.11052C6.03431 8.11533 6.03918 8.12204 6.04171 8.12974C6.04423 8.13743 6.0443 8.14573 6.0419 8.15347C6.0395 8.1612 6.03475 8.16801 6.02831 8.17292L5.79531 8.34492L5.88231 8.62092C5.88498 8.62877 5.88508 8.63728 5.88259 8.6452C5.8801 8.65311 5.87515 8.66002 5.86845 8.66493C5.86176 8.66984 5.85368 8.67248 5.84538 8.67248C5.83708 8.67248 5.829 8.66983 5.82231 8.66492L5.58631 8.49692L5.35031 8.66492C5.34362 8.66983 5.33554 8.67248 5.32724 8.67248C5.31894 8.67248 5.31086 8.66984 5.30417 8.66493C5.29748 8.66002 5.29253 8.65311 5.29003 8.6452C5.28754 8.63728 5.28764 8.62877 5.29031 8.62092L5.37731 8.34492L5.14431 8.17292C5.13787 8.16801 5.13312 8.1612 5.13072 8.15347C5.12832 8.14573 5.12839 8.13743 5.13092 8.12974C5.13345 8.12204 5.13831 8.11533 5.14483 8.11052C5.15135 8.10571 5.15921 8.10306 5.16731 8.10292H5.45731L5.54931 7.82792C5.55133 7.81994 5.55582 7.8128 5.56214 7.80753C5.56846 7.80225 5.57628 7.79911 5.5845 7.79855C5.59271 7.798 5.60089 7.80006 5.60786 7.80444C5.61483 7.80881 5.62024 7.81528 5.62331 7.82292V7.82792ZM5.62331 9.26492L5.71531 9.53992H6.00531C6.01341 9.54005 6.02127 9.54271 6.02779 9.54752C6.03431 9.55232 6.03918 9.55904 6.04171 9.56674C6.04423 9.57444 6.0443 9.58273 6.0419 9.59047C6.0395 9.59821 6.03475 9.605 6.02831 9.60992L5.79531 9.78192L5.88231 10.0579C5.88498 10.0658 5.88508 10.0743 5.88259 10.0822C5.8801 10.0901 5.87515 10.097 5.86845 10.1019C5.86176 10.1068 5.85368 10.1095 5.84538 10.1095C5.83708 10.1095 5.829 10.1068 5.82231 10.1019L5.58631 9.93392L5.35031 10.1019C5.34362 10.1068 5.33554 10.1095 5.32724 10.1095C5.31894 10.1095 5.31086 10.1068 5.30417 10.1019C5.29748 10.097 5.29253 10.0901 5.29003 10.0822C5.28754 10.0743 5.28764 10.0658 5.29031 10.0579L5.37731 9.78192L5.14431 9.60992C5.13787 9.605 5.13312 9.59821 5.13072 9.59047C5.12832 9.58273 5.12839 9.57444 5.13092 9.56674C5.13345 9.55904 5.13831 9.55232 5.14483 9.54752C5.15135 9.54271 5.15921 9.54005 5.16731 9.53992H5.45731L5.54931 9.26492C5.55133 9.25693 5.55582 9.2498 5.56214 9.24452C5.56846 9.23925 5.57628 9.2361 5.5845 9.23555C5.59271 9.23499 5.60089 9.23706 5.60786 9.24143C5.61483 9.24581 5.62024 9.25228 5.62331 9.25992V9.26492ZM5.62331 10.7019L5.71531 10.9769H6.00531C6.01341 10.9771 6.02127 10.9797 6.02779 10.9845C6.03431 10.9893 6.03918 10.996 6.04171 11.0037C6.04423 11.0114 6.0443 11.0197 6.0419 11.0275C6.0395 11.0352 6.03475 11.042 6.02831 11.0469L5.79531 11.2189L5.88231 11.4949C5.88498 11.5028 5.88508 11.5113 5.88259 11.5192C5.8801 11.5271 5.87515 11.534 5.86845 11.5389C5.86176 11.5438 5.85368 11.5465 5.84538 11.5465C5.83708 11.5465 5.829 11.5438 5.82231 11.5389L5.58631 11.3709L5.35031 11.5389C5.34362 11.5438 5.33554 11.5465 5.32724 11.5465C5.31894 11.5465 5.31086 11.5438 5.30417 11.5389C5.29748 11.534 5.29253 11.5271 5.29003 11.5192C5.28754 11.5113 5.28764 11.5028 5.29031 11.4949L5.37731 11.2189L5.14431 11.0469C5.13787 11.042 5.13312 11.0352 5.13072 11.0275C5.12832 11.0197 5.12839 11.0114 5.13092 11.0037C5.13345 10.996 5.13831 10.9893 5.14483 10.9845C5.15135 10.9797 5.15921 10.9771 5.16731 10.9769H5.45731L5.54931 10.7019C5.55133 10.6939 5.55582 10.6868 5.56214 10.6815C5.56846 10.6762 5.57628 10.6731 5.5845 10.6726C5.59271 10.672 5.60089 10.6741 5.60786 10.6784C5.61483 10.6828 5.62024 10.6893 5.62331 10.6969V10.7019ZM6.73831 5.65892L6.83031 5.93392H7.12031C7.12841 5.93406 7.13627 5.93671 7.14279 5.94152C7.14931 5.94633 7.15418 5.95304 7.15671 5.96074C7.15923 5.96844 7.1593 5.97673 7.1569 5.98447C7.1545 5.9922 7.14975 5.99901 7.14331 6.00392L6.91031 6.17592L6.99731 6.45192C6.99966 6.45971 6.99951 6.46804 6.99689 6.47575C6.99427 6.48345 6.9893 6.49014 6.98269 6.49488C6.97608 6.49962 6.96815 6.50217 6.96001 6.50217C6.95187 6.50218 6.94393 6.49965 6.93731 6.49492L6.70131 6.32692L6.46531 6.49492C6.45869 6.49965 6.45075 6.50218 6.44262 6.50217C6.43448 6.50217 6.42655 6.49962 6.41993 6.49488C6.41332 6.49014 6.40835 6.48345 6.40573 6.47575C6.40311 6.46804 6.40296 6.45971 6.40531 6.45192L6.49231 6.17592L6.25931 6.00392C6.25287 5.99901 6.24812 5.9922 6.24572 5.98447C6.24332 5.97673 6.24339 5.96844 6.24592 5.96074C6.24845 5.95304 6.25331 5.94633 6.25983 5.94152C6.26635 5.93671 6.27421 5.93406 6.28231 5.93392H6.57231L6.66431 5.65892C6.66633 5.65094 6.67081 5.64379 6.67713 5.63852C6.68345 5.63324 6.69128 5.63011 6.6995 5.62955C6.70771 5.629 6.71589 5.63105 6.72286 5.63543C6.72983 5.63981 6.73524 5.64628 6.73831 5.65392V5.65892ZM6.73831 7.09592L6.83031 7.37092H7.12031C7.12841 7.37105 7.13627 7.37371 7.14279 7.37852C7.14931 7.38332 7.15418 7.39004 7.15671 7.39774C7.15923 7.40543 7.1593 7.41373 7.1569 7.42147C7.1545 7.42921 7.14975 7.436 7.14331 7.44092L6.91031 7.61292L6.99731 7.88892C6.99998 7.89677 7.00008 7.90528 6.99759 7.91319C6.9951 7.92111 6.99015 7.92802 6.98345 7.93293C6.97676 7.93784 6.96868 7.94049 6.96038 7.94048C6.95208 7.94048 6.944 7.93783 6.93731 7.93291L6.70131 7.76492L6.46531 7.93291C6.45862 7.93783 6.45054 7.94048 6.44224 7.94048C6.43394 7.94049 6.42586 7.93784 6.41917 7.93293C6.41248 7.92802 6.40753 7.92111 6.40503 7.91319C6.40254 7.90528 6.40264 7.89677 6.40531 7.88892L6.49231 7.61292L6.25931 7.44092C6.25287 7.436 6.24812 7.42921 6.24572 7.42147C6.24332 7.41373 6.24339 7.40543 6.24592 7.39774C6.24845 7.39004 6.25331 7.38332 6.25983 7.37852C6.26635 7.37371 6.27421 7.37105 6.28231 7.37092H6.57231L6.66431 7.09592C6.66633 7.08793 6.67081 7.0808 6.67713 7.07552C6.68345 7.07025 6.69128 7.06711 6.6995 7.06655C6.70771 7.066 6.71589 7.06806 6.72286 7.07243C6.72983 7.07681 6.73524 7.08328 6.73831 7.09092V7.09592ZM6.73831 8.53292L6.83031 8.80791H7.12031C7.12841 8.80805 7.13627 8.81071 7.14279 8.81551C7.14931 8.82032 7.15418 8.82704 7.15671 8.83474C7.15923 8.84244 7.1593 8.85073 7.1569 8.85847C7.1545 8.86621 7.14975 8.87301 7.14331 8.87792L6.91031 9.04992L6.99731 9.32592C6.99966 9.33371 6.99951 9.34204 6.99689 9.34975C6.99427 9.35745 6.9893 9.36413 6.98269 9.36887C6.97608 9.37361 6.96815 9.37617 6.96001 9.37617C6.95187 9.37618 6.94393 9.37365 6.93731 9.36892L6.70131 9.20092L6.46531 9.36892C6.45869 9.37365 6.45075 9.37618 6.44262 9.37617C6.43448 9.37617 6.42655 9.37361 6.41993 9.36887C6.41332 9.36413 6.40835 9.35745 6.40573 9.34975C6.40311 9.34204 6.40296 9.33371 6.40531 9.32592L6.49231 9.04992L6.25931 8.87792C6.25287 8.87301 6.24812 8.86621 6.24572 8.85847C6.24332 8.85073 6.24339 8.84244 6.24592 8.83474C6.24845 8.82704 6.25331 8.82032 6.25983 8.81551C6.26635 8.81071 6.27421 8.80805 6.28231 8.80791H6.57231L6.66431 8.53292C6.66633 8.52494 6.67081 8.51779 6.67713 8.51252C6.68345 8.50724 6.69128 8.50411 6.6995 8.50356C6.70771 8.503 6.71589 8.50505 6.72286 8.50943C6.72983 8.51381 6.73524 8.52028 6.73831 8.52792V8.53292ZM6.73831 9.96992L6.83031 10.2449H7.12031C7.12841 10.2451 7.13627 10.2477 7.14279 10.2525C7.14931 10.2573 7.15418 10.264 7.15671 10.2717C7.15923 10.2794 7.1593 10.2877 7.1569 10.2955C7.1545 10.3032 7.14975 10.31 7.14331 10.3149L6.91031 10.4869L6.99731 10.7629C6.99998 10.7708 7.00008 10.7793 6.99759 10.7872C6.9951 10.7951 6.99015 10.802 6.98345 10.8069C6.97676 10.8118 6.96868 10.8145 6.96038 10.8145C6.95208 10.8145 6.944 10.8118 6.93731 10.8069L6.70131 10.6389L6.46531 10.8069C6.45862 10.8118 6.45054 10.8145 6.44224 10.8145C6.43394 10.8145 6.42586 10.8118 6.41917 10.8069C6.41248 10.802 6.40753 10.7951 6.40503 10.7872C6.40254 10.7793 6.40264 10.7708 6.40531 10.7629L6.49231 10.4869L6.25931 10.3149C6.25287 10.31 6.24812 10.3032 6.24572 10.2955C6.24332 10.2877 6.24339 10.2794 6.24592 10.2717C6.24845 10.264 6.25331 10.2573 6.25983 10.2525C6.26635 10.2477 6.27421 10.2451 6.28231 10.2449H6.57231L6.66431 9.96992C6.66633 9.96194 6.67081 9.9548 6.67713 9.94952C6.68345 9.94425 6.69128 9.94111 6.6995 9.94055C6.70771 9.94 6.71589 9.94206 6.72286 9.94643C6.72983 9.95081 6.73524 9.95728 6.73831 9.96492V9.96992ZM7.85331 4.95392L7.94531 5.22892H8.23531C8.24341 5.22906 8.25127 5.23171 8.25779 5.23652C8.26431 5.24133 8.26918 5.24804 8.27171 5.25574C8.27423 5.26343 8.2743 5.27173 8.2719 5.27946C8.2695 5.2872 8.26475 5.29401 8.25831 5.29892L8.02531 5.47092L8.11231 5.74692C8.11498 5.75477 8.11508 5.76328 8.11259 5.77119C8.1101 5.77911 8.10514 5.78602 8.09845 5.79093C8.09176 5.79584 8.08368 5.79848 8.07538 5.79848C8.06708 5.79848 8.059 5.79583 8.05231 5.79092L7.81631 5.62292L7.58031 5.79092C7.57362 5.79583 7.56554 5.79848 7.55724 5.79848C7.54894 5.79848 7.54086 5.79584 7.53417 5.79093C7.52748 5.78602 7.52253 5.77911 7.52003 5.77119C7.51754 5.76328 7.51764 5.75477 7.52031 5.74692L7.60731 5.47092L7.37431 5.29892C7.36787 5.29401 7.36312 5.2872 7.36072 5.27946C7.35832 5.27173 7.35839 5.26343 7.36092 5.25574C7.36345 5.24804 7.36831 5.24133 7.37483 5.23652C7.38135 5.23171 7.38921 5.22906 7.39731 5.22892H7.68731L7.77931 4.95392C7.7819 4.94615 7.78687 4.9394 7.79351 4.93461C7.80015 4.92982 7.80812 4.92725 7.81631 4.92725C7.8245 4.92725 7.83248 4.92982 7.83912 4.93461C7.84576 4.9394 7.85072 4.94615 7.85331 4.95392ZM7.85331 6.39091L7.94531 6.66592H8.23531C8.24341 6.66605 8.25127 6.66871 8.25779 6.67352C8.26431 6.67832 8.26918 6.68504 8.27171 6.69274C8.27423 6.70044 8.2743 6.70873 8.2719 6.71647C8.2695 6.72421 8.26475 6.731 8.25831 6.73592L8.02531 6.90792L8.11231 7.18392C8.11466 7.19171 8.11451 7.20004 8.11189 7.20774C8.10927 7.21544 8.1043 7.22214 8.09769 7.22688C8.09108 7.23162 8.08315 7.23417 8.07501 7.23418C8.06687 7.23418 8.05893 7.23165 8.05231 7.22692L7.81531 7.05392L7.57931 7.22192C7.57269 7.22664 7.56475 7.22919 7.55662 7.22918C7.54848 7.22917 7.54055 7.22662 7.53393 7.22188C7.52732 7.21714 7.52235 7.21045 7.51973 7.20274C7.51711 7.19504 7.51696 7.18671 7.51931 7.17892L7.60631 6.90292L7.37331 6.73092C7.36687 6.726 7.36212 6.7192 7.35972 6.71146C7.35732 6.70373 7.35739 6.69543 7.35992 6.68774C7.36245 6.68004 7.36731 6.67332 7.37383 6.66852C7.38035 6.66371 7.38821 6.66106 7.39631 6.66092H7.68631L7.77831 6.38592C7.7809 6.37815 7.78587 6.37139 7.79251 6.36661C7.79915 6.36182 7.80712 6.35925 7.81531 6.35925C7.8235 6.35925 7.83148 6.36182 7.83812 6.36661C7.84476 6.37139 7.84972 6.37815 7.85231 6.38592L7.85331 6.39091ZM7.85331 7.82792L7.94531 8.10292H8.23531C8.24341 8.10306 8.25127 8.10571 8.25779 8.11052C8.26431 8.11533 8.26918 8.12204 8.27171 8.12974C8.27423 8.13743 8.2743 8.14573 8.2719 8.15347C8.2695 8.1612 8.26475 8.16801 8.25831 8.17292L8.02531 8.34492L8.11231 8.62092C8.11498 8.62877 8.11508 8.63728 8.11259 8.6452C8.1101 8.65311 8.10514 8.66002 8.09845 8.66493C8.09176 8.66984 8.08368 8.67248 8.07538 8.67248C8.06708 8.67248 8.059 8.66983 8.05231 8.66492L7.81631 8.49692L7.58031 8.66492C7.57362 8.66983 7.56554 8.67248 7.55724 8.67248C7.54894 8.67248 7.54086 8.66984 7.53417 8.66493C7.52748 8.66002 7.52253 8.65311 7.52003 8.6452C7.51754 8.63728 7.51764 8.62877 7.52031 8.62092L7.60731 8.34492L7.37431 8.17292C7.36787 8.16801 7.36312 8.1612 7.36072 8.15347C7.35832 8.14573 7.35839 8.13743 7.36092 8.12974C7.36345 8.12204 7.36831 8.11533 7.37483 8.11052C7.38135 8.10571 7.38921 8.10306 7.39731 8.10292H7.68731L7.77931 7.82792C7.7819 7.82015 7.78687 7.8134 7.79351 7.80861C7.80015 7.80382 7.80812 7.80125 7.81631 7.80125C7.8245 7.80125 7.83248 7.80382 7.83912 7.80861C7.84576 7.8134 7.85072 7.82015 7.85331 7.82792ZM7.85331 9.26492L7.94531 9.53992H8.23531C8.24341 9.54005 8.25127 9.54271 8.25779 9.54752C8.26431 9.55232 8.26918 9.55904 8.27171 9.56674C8.27423 9.57444 8.2743 9.58273 8.2719 9.59047C8.2695 9.59821 8.26475 9.605 8.25831 9.60992L8.02531 9.78192L8.11231 10.0579C8.11498 10.0658 8.11508 10.0743 8.11259 10.0822C8.1101 10.0901 8.10514 10.097 8.09845 10.1019C8.09176 10.1068 8.08368 10.1095 8.07538 10.1095C8.06708 10.1095 8.059 10.1068 8.05231 10.1019L7.81631 9.93392L7.58031 10.1019C7.57362 10.1068 7.56554 10.1095 7.55724 10.1095C7.54894 10.1095 7.54086 10.1068 7.53417 10.1019C7.52748 10.097 7.52253 10.0901 7.52003 10.0822C7.51754 10.0743 7.51764 10.0658 7.52031 10.0579L7.60731 9.78192L7.37431 9.60992C7.36787 9.605 7.36312 9.59821 7.36072 9.59047C7.35832 9.58273 7.35839 9.57444 7.36092 9.56674C7.36345 9.55904 7.36831 9.55232 7.37483 9.54752C7.38135 9.54271 7.38921 9.54005 7.39731 9.53992H7.68731L7.77931 9.26492C7.7819 9.25715 7.78687 9.2504 7.79351 9.24561C7.80015 9.24083 7.80812 9.23825 7.81631 9.23825C7.8245 9.23825 7.83248 9.24083 7.83912 9.24561C7.84576 9.2504 7.85072 9.25715 7.85331 9.26492ZM7.85331 10.7019L7.94531 10.9769H8.23531C8.24341 10.9771 8.25127 10.9797 8.25779 10.9845C8.26431 10.9893 8.26918 10.996 8.27171 11.0037C8.27423 11.0114 8.2743 11.0197 8.2719 11.0275C8.2695 11.0352 8.26475 11.042 8.25831 11.0469L8.02531 11.2189L8.11231 11.4949C8.11498 11.5028 8.11508 11.5113 8.11259 11.5192C8.1101 11.5271 8.10514 11.534 8.09845 11.5389C8.09176 11.5438 8.08368 11.5465 8.07538 11.5465C8.06708 11.5465 8.059 11.5438 8.05231 11.5389L7.81631 11.3709L7.58031 11.5389C7.57362 11.5438 7.56554 11.5465 7.55724 11.5465C7.54894 11.5465 7.54086 11.5438 7.53417 11.5389C7.52748 11.534 7.52253 11.5271 7.52003 11.5192C7.51754 11.5113 7.51764 11.5028 7.52031 11.4949L7.60731 11.2189L7.37431 11.0469C7.36787 11.042 7.36312 11.0352 7.36072 11.0275C7.35832 11.0197 7.35839 11.0114 7.36092 11.0037C7.36345 10.996 7.36831 10.9893 7.37483 10.9845C7.38135 10.9797 7.38921 10.9771 7.39731 10.9769H7.68731L7.77931 10.7019C7.7819 10.6942 7.78687 10.6874 7.79351 10.6826C7.80015 10.6778 7.80812 10.6752 7.81631 10.6752C7.8245 10.6752 7.83248 10.6778 7.83912 10.6826C7.84576 10.6874 7.85072 10.6942 7.85331 10.7019ZM8.96831 5.65892L9.06031 5.93392H9.35031C9.35841 5.93406 9.36627 5.93671 9.37279 5.94152C9.37931 5.94633 9.38418 5.95304 9.38671 5.96074C9.38923 5.96844 9.3893 5.97673 9.3869 5.98447C9.3845 5.9922 9.37975 5.99901 9.37331 6.00392L9.14031 6.17592L9.22731 6.45192C9.22966 6.45971 9.22951 6.46804 9.22689 6.47575C9.22427 6.48345 9.2193 6.49014 9.21269 6.49488C9.20608 6.49962 9.19815 6.50217 9.19001 6.50217C9.18187 6.50218 9.17394 6.49965 9.16731 6.49492L8.93131 6.32692L8.69531 6.49492C8.68869 6.49965 8.68075 6.50218 8.67262 6.50217C8.66448 6.50217 8.65655 6.49962 8.64993 6.49488C8.64332 6.49014 8.63835 6.48345 8.63573 6.47575C8.63311 6.46804 8.63296 6.45971 8.63531 6.45192L8.72231 6.17592L8.48931 6.00392C8.48287 5.99901 8.47812 5.9922 8.47572 5.98447C8.47332 5.97673 8.47339 5.96844 8.47592 5.96074C8.47845 5.95304 8.48331 5.94633 8.48983 5.94152C8.49635 5.93671 8.50421 5.93406 8.51231 5.93392H8.80231L8.89431 5.65892C8.89604 5.65057 8.90045 5.64301 8.90688 5.63741C8.91331 5.6318 8.9214 5.62847 8.92991 5.6279C8.93842 5.62733 8.94688 5.62957 8.954 5.63427C8.96111 5.63897 8.96649 5.64587 8.96931 5.65392L8.96831 5.65892ZM8.96831 7.09592L9.06031 7.37092H9.35031C9.35841 7.37105 9.36627 7.37371 9.37279 7.37852C9.37931 7.38332 9.38418 7.39004 9.38671 7.39774C9.38923 7.40543 9.3893 7.41373 9.3869 7.42147C9.3845 7.42921 9.37975 7.436 9.37331 7.44092L9.14031 7.61292L9.22731 7.88892C9.22999 7.89677 9.23008 7.90528 9.22759 7.91319C9.2251 7.92111 9.22015 7.92802 9.21345 7.93293C9.20676 7.93784 9.19868 7.94049 9.19038 7.94048C9.18208 7.94048 9.174 7.93783 9.16731 7.93291L8.93131 7.76492L8.69531 7.93291C8.68862 7.93783 8.68054 7.94048 8.67224 7.94048C8.66394 7.94049 8.65586 7.93784 8.64917 7.93293C8.64248 7.92802 8.63753 7.92111 8.63503 7.91319C8.63254 7.90528 8.63264 7.89677 8.63531 7.88892L8.72231 7.61292L8.48931 7.44092C8.48287 7.436 8.47812 7.42921 8.47572 7.42147C8.47332 7.41373 8.47339 7.40543 8.47592 7.39774C8.47845 7.39004 8.48331 7.38332 8.48983 7.37852C8.49635 7.37371 8.50421 7.37105 8.51231 7.37092H8.80231L8.89431 7.09592C8.89604 7.08757 8.90045 7.08001 8.90688 7.07441C8.91331 7.06881 8.9214 7.06546 8.92991 7.0649C8.93842 7.06433 8.94688 7.06657 8.954 7.07127C8.96111 7.07597 8.96649 7.08287 8.96931 7.09092L8.96831 7.09592ZM8.96831 8.53292L9.06031 8.80791H9.35031C9.35841 8.80805 9.36627 8.81071 9.37279 8.81551C9.37931 8.82032 9.38418 8.82704 9.38671 8.83474C9.38923 8.84244 9.3893 8.85073 9.3869 8.85847C9.3845 8.86621 9.37975 8.87301 9.37331 8.87792L9.14031 9.04992L9.22731 9.32592C9.22966 9.33371 9.22951 9.34204 9.22689 9.34975C9.22427 9.35745 9.2193 9.36413 9.21269 9.36887C9.20608 9.37361 9.19815 9.37617 9.19001 9.37617C9.18187 9.37618 9.17394 9.37365 9.16731 9.36892L8.93131 9.20092L8.69531 9.36892C8.68869 9.37365 8.68075 9.37618 8.67262 9.37617C8.66448 9.37617 8.65655 9.37361 8.64993 9.36887C8.64332 9.36413 8.63835 9.35745 8.63573 9.34975C8.63311 9.34204 8.63296 9.33371 8.63531 9.32592L8.72231 9.04992L8.48931 8.87792C8.48287 8.87301 8.47812 8.86621 8.47572 8.85847C8.47332 8.85073 8.47339 8.84244 8.47592 8.83474C8.47845 8.82704 8.48331 8.82032 8.48983 8.81551C8.49635 8.81071 8.50421 8.80805 8.51231 8.80791H8.80231L8.89431 8.53292C8.89604 8.52457 8.90045 8.51701 8.90688 8.51141C8.91331 8.5058 8.9214 8.50247 8.92991 8.5019C8.93842 8.50133 8.94688 8.50357 8.954 8.50827C8.96111 8.51297 8.96649 8.51987 8.96931 8.52792L8.96831 8.53292ZM8.96831 9.96992L9.06031 10.2449H9.35031C9.35841 10.2451 9.36627 10.2477 9.37279 10.2525C9.37931 10.2573 9.38418 10.264 9.38671 10.2717C9.38923 10.2794 9.3893 10.2877 9.3869 10.2955C9.3845 10.3032 9.37975 10.31 9.37331 10.3149L9.14031 10.4869L9.22731 10.7629C9.22999 10.7708 9.23008 10.7793 9.22759 10.7872C9.2251 10.7951 9.22015 10.802 9.21345 10.8069C9.20676 10.8118 9.19868 10.8145 9.19038 10.8145C9.18208 10.8145 9.174 10.8118 9.16731 10.8069L8.93131 10.6389L8.69531 10.8069C8.68862 10.8118 8.68054 10.8145 8.67224 10.8145C8.66394 10.8145 8.65586 10.8118 8.64917 10.8069C8.64248 10.802 8.63753 10.7951 8.63503 10.7872C8.63254 10.7793 8.63264 10.7708 8.63531 10.7629L8.72231 10.4869L8.48931 10.3149C8.48287 10.31 8.47812 10.3032 8.47572 10.2955C8.47332 10.2877 8.47339 10.2794 8.47592 10.2717C8.47845 10.264 8.48331 10.2573 8.48983 10.2525C8.49635 10.2477 8.50421 10.2451 8.51231 10.2449H8.80231L8.89431 9.96992C8.89604 9.96157 8.90045 9.95401 8.90688 9.94841C8.91331 9.94281 8.9214 9.93946 8.92991 9.9389C8.93842 9.93833 8.94688 9.94057 8.954 9.94527C8.96111 9.94997 8.96649 9.95687 8.96931 9.96492L8.96831 9.96992ZM10.0843 4.95392L10.1763 5.22892H10.4663C10.4744 5.22906 10.4823 5.23171 10.4888 5.23652C10.4953 5.24133 10.5002 5.24804 10.5027 5.25574C10.5052 5.26343 10.5053 5.27173 10.5029 5.27946C10.5005 5.2872 10.4958 5.29401 10.4893 5.29892L10.2563 5.47092L10.3433 5.74692C10.346 5.75477 10.3461 5.76328 10.3436 5.77119C10.3411 5.77911 10.3361 5.78602 10.3295 5.79093C10.3228 5.79584 10.3147 5.79848 10.3064 5.79848C10.2981 5.79848 10.29 5.79583 10.2833 5.79092L10.0473 5.62292L9.81131 5.79092C9.80462 5.79583 9.79654 5.79848 9.78824 5.79848C9.77994 5.79848 9.77186 5.79584 9.76517 5.79093C9.75848 5.78602 9.75353 5.77911 9.75103 5.77119C9.74854 5.76328 9.74864 5.75477 9.75131 5.74692L9.83831 5.47092L9.60531 5.29892C9.59887 5.29401 9.59412 5.2872 9.59172 5.27946C9.58932 5.27173 9.58939 5.26343 9.59192 5.25574C9.59445 5.24804 9.59931 5.24133 9.60583 5.23652C9.61235 5.23171 9.62021 5.22906 9.62831 5.22892H9.91831L10.0153 4.95392C10.0179 4.94615 10.0229 4.9394 10.0295 4.93461C10.0361 4.92982 10.0441 4.92725 10.0523 4.92725C10.0605 4.92725 10.0685 4.92982 10.0751 4.93461C10.0818 4.9394 10.0867 4.94615 10.0893 4.95392H10.0843ZM10.0843 6.39091L10.1763 6.66592H10.4663C10.4744 6.66605 10.4823 6.66871 10.4888 6.67352C10.4953 6.67832 10.5002 6.68504 10.5027 6.69274C10.5052 6.70044 10.5053 6.70873 10.5029 6.71647C10.5005 6.72421 10.4958 6.731 10.4893 6.73592L10.2563 6.90792L10.3433 7.18392C10.3457 7.19171 10.3455 7.20004 10.3429 7.20774C10.3403 7.21544 10.3353 7.22214 10.3287 7.22688C10.3221 7.23162 10.3141 7.23417 10.306 7.23418C10.2979 7.23418 10.2899 7.23165 10.2833 7.22692L10.0473 7.05892L9.81131 7.22692C9.80469 7.23165 9.79675 7.23418 9.78862 7.23418C9.78048 7.23417 9.77255 7.23162 9.76593 7.22688C9.75932 7.22214 9.75435 7.21544 9.75173 7.20774C9.74911 7.20004 9.74896 7.19171 9.75131 7.18392L9.83831 6.90792L9.60531 6.73592C9.59887 6.731 9.59412 6.72421 9.59172 6.71647C9.58932 6.70873 9.58939 6.70044 9.59192 6.69274C9.59445 6.68504 9.59931 6.67832 9.60583 6.67352C9.61235 6.66871 9.62021 6.66605 9.62831 6.66592H9.91831L10.0103 6.39091C10.0129 6.38315 10.0179 6.3764 10.0245 6.37161C10.0311 6.36683 10.0391 6.36425 10.0473 6.36425C10.0555 6.36425 10.0635 6.36683 10.0701 6.37161C10.0768 6.3764 10.0817 6.38315 10.0843 6.39091ZM10.0843 7.82792L10.1763 8.10292H10.4663C10.4744 8.10306 10.4823 8.10571 10.4888 8.11052C10.4953 8.11533 10.5002 8.12204 10.5027 8.12974C10.5052 8.13743 10.5053 8.14573 10.5029 8.15347C10.5005 8.1612 10.4958 8.16801 10.4893 8.17292L10.2563 8.34492L10.3433 8.62092C10.346 8.62877 10.3461 8.63728 10.3436 8.6452C10.3411 8.65311 10.3361 8.66002 10.3295 8.66493C10.3228 8.66984 10.3147 8.67248 10.3064 8.67248C10.2981 8.67248 10.29 8.66983 10.2833 8.66492L10.0473 8.49692L9.81131 8.66492C9.80462 8.66983 9.79654 8.67248 9.78824 8.67248C9.77994 8.67248 9.77186 8.66984 9.76517 8.66493C9.75848 8.66002 9.75353 8.65311 9.75103 8.6452C9.74854 8.63728 9.74864 8.62877 9.75131 8.62092L9.83831 8.34492L9.60531 8.17292C9.59887 8.16801 9.59412 8.1612 9.59172 8.15347C9.58932 8.14573 9.58939 8.13743 9.59192 8.12974C9.59445 8.12204 9.59931 8.11533 9.60583 8.11052C9.61235 8.10571 9.62021 8.10306 9.62831 8.10292H9.91831L10.0103 7.82792C10.0129 7.82015 10.0179 7.8134 10.0245 7.80861C10.0311 7.80382 10.0391 7.80125 10.0473 7.80125C10.0555 7.80125 10.0635 7.80382 10.0701 7.80861C10.0768 7.8134 10.0817 7.82015 10.0843 7.82792ZM10.0843 9.26492L10.1763 9.53992H10.4663C10.4744 9.54005 10.4823 9.54271 10.4888 9.54752C10.4953 9.55232 10.5002 9.55904 10.5027 9.56674C10.5052 9.57444 10.5053 9.58273 10.5029 9.59047C10.5005 9.59821 10.4958 9.605 10.4893 9.60992L10.2563 9.78192L10.3433 10.0579C10.346 10.0658 10.3461 10.0743 10.3436 10.0822C10.3411 10.0901 10.3361 10.097 10.3295 10.1019C10.3228 10.1068 10.3147 10.1095 10.3064 10.1095C10.2981 10.1095 10.29 10.1068 10.2833 10.1019L10.0473 9.93392L9.81131 10.1019C9.80462 10.1068 9.79654 10.1095 9.78824 10.1095C9.77994 10.1095 9.77186 10.1068 9.76517 10.1019C9.75848 10.097 9.75353 10.0901 9.75103 10.0822C9.74854 10.0743 9.74864 10.0658 9.75131 10.0579L9.83831 9.78192L9.60531 9.60992C9.59887 9.605 9.59412 9.59821 9.59172 9.59047C9.58932 9.58273 9.58939 9.57444 9.59192 9.56674C9.59445 9.55904 9.59931 9.55232 9.60583 9.54752C9.61235 9.54271 9.62021 9.54005 9.62831 9.53992H9.91831L10.0103 9.26492C10.0129 9.25715 10.0179 9.2504 10.0245 9.24561C10.0311 9.24083 10.0391 9.23825 10.0473 9.23825C10.0555 9.23825 10.0635 9.24083 10.0701 9.24561C10.0768 9.2504 10.0817 9.25715 10.0843 9.26492ZM10.0843 10.7019L10.1763 10.9769H10.4663C10.4744 10.9771 10.4823 10.9797 10.4888 10.9845C10.4953 10.9893 10.5002 10.996 10.5027 11.0037C10.5052 11.0114 10.5053 11.0197 10.5029 11.0275C10.5005 11.0352 10.4958 11.042 10.4893 11.0469L10.2563 11.2189L10.3433 11.4949C10.346 11.5028 10.3461 11.5113 10.3436 11.5192C10.3411 11.5271 10.3361 11.534 10.3295 11.5389C10.3228 11.5438 10.3147 11.5465 10.3064 11.5465C10.2981 11.5465 10.29 11.5438 10.2833 11.5389L10.0473 11.3709L9.81131 11.5389C9.80462 11.5438 9.79654 11.5465 9.78824 11.5465C9.77994 11.5465 9.77186 11.5438 9.76517 11.5389C9.75848 11.534 9.75353 11.5271 9.75103 11.5192C9.74854 11.5113 9.74864 11.5028 9.75131 11.4949L9.83831 11.2189L9.60531 11.0469C9.59887 11.042 9.59412 11.0352 9.59172 11.0275C9.58932 11.0197 9.58939 11.0114 9.59192 11.0037C9.59445 10.996 9.59931 10.9893 9.60583 10.9845C9.61235 10.9797 9.62021 10.9771 9.62831 10.9769H9.91831L10.0103 10.7019C10.0129 10.6942 10.0179 10.6874 10.0245 10.6826C10.0311 10.6778 10.0391 10.6752 10.0473 10.6752C10.0555 10.6752 10.0635 10.6778 10.0701 10.6826C10.0768 10.6874 10.0817 10.6942 10.0843 10.7019Z" fill="#F2F2F2"/>
</svg>
